# xmcd
#
# Track frame offsets: 
#        150
#        20542
#        41613
#        65076
#        89436
#        112191
#        143012
#        166534
#        188040
#        209431
#        231471
#        256562
#
# Disc length: 3690 seconds
#
# Revision: 0
# Processed by: cddbd v1.5.2PL0 Copyright (c) Steve Scherf et al.
# Submitted via: ExactAudioCopy v0.99pb5
#
DISCID=a30e680c
DTITLE=Quoc Dung - Guitar Hoa Tau
DYEAR=2009
DGENRE=
TTITLE0=Thuong Qua Viet Nam
TTITLE1=Bien Nho
TTITLE2=Ngay Da Dom Bong
TTITLE3=Thuong Ve Mien Trung
TTITLE4=Xuan Tren Dat Khach
TTITLE5=Loi Thu Xua
TTITLE6=Cau Ho Ben Bo Hien Luong
TTITLE7=Hanh Trinh Tren Dat Phu Sa
TTITLE8=Chuyen Hop Tan
TTITLE9=Lien Khuc Trang Thu Da Khuc - Ru Con
TTITLE10=Cho Vua Long Em
TTITLE11=Que Huong Tinh Yeu Va Tuoi Tre
EXTD=
EXTT0=
EXTT1=
EXTT2=
EXTT3=
EXTT4=
EXTT5=
EXTT6=
EXTT7=
EXTT8=
EXTT9=
EXTT10=
EXTT11=
PLAYORDER=
